HIERARCHY
ROOT Hips
{
 OFFSET 0.000000 0.000000 0.000000
 CHANNELS 6 Xposition Yposition Zposition Yrotation Xrotation Zrotation
 JOINT Chest
 {
  OFFSET 0.000000 9.585900 0.002600
  CHANNELS 3 Yrotation Xrotation Zrotation
  JOINT Chest2
  {
   OFFSET 0.000000 9.601200 -0.005300
   CHANNELS 3 Yrotation Xrotation Zrotation
   JOINT Chest3
   {
    OFFSET 0.000000 9.561800 0.000000
    CHANNELS 3 Yrotation Xrotation Zrotation
    JOINT Chest4
    {
     OFFSET 0.000000 9.552100 0.000000
     CHANNELS 3 Yrotation Xrotation Zrotation
     JOINT Neck
     {
      OFFSET 0.000000 14.453000 0.000000
      CHANNELS 3 Yrotation Xrotation Zrotation
      JOINT Head
      {
       OFFSET 0.000000 8.936500 -0.011300
       CHANNELS 3 Yrotation Xrotation Zrotation
       End Site
       {
        OFFSET 0.000000 17.073600 -0.006000
       }
      }
     }
     JOINT RightCollar
     {
      OFFSET -2.921100 9.558500 0.000000
      CHANNELS 3 Yrotation Xrotation Zrotation
      JOINT RightShoulder
      {
       OFFSET -13.519700 0.000000 0.000000
       CHANNELS 3 Yrotation Xrotation Zrotation
       JOINT RightElbow
       {
        OFFSET 0.000000 -29.696600 0.000000
        CHANNELS 3 Yrotation Xrotation Zrotation
        JOINT RightWrist
        {
         OFFSET 0.000000 -24.004700 0.000000
         CHANNELS 3 Yrotation Xrotation Zrotation
         End Site
         {
          OFFSET 0.000000 -17.728500 0.000000
         }
        }
       }
      }
     }
     JOINT LeftCollar
     {
      OFFSET 2.921100 9.558500 0.000000
      CHANNELS 3 Yrotation Xrotation Zrotation
      JOINT LeftShoulder
      {
       OFFSET 13.519700 0.000000 0.000000
       CHANNELS 3 Yrotation Xrotation Zrotation
       JOINT LeftElbow
       {
        OFFSET 0.000000 -29.696600 0.000000
        CHANNELS 3 Yrotation Xrotation Zrotation
        JOINT LeftWrist
        {
         OFFSET 0.000000 -24.004700 0.000000
         CHANNELS 3 Yrotation Xrotation Zrotation
         End Site
         {
          OFFSET 0.000000 -17.728500 0.000000
         }
        }
       }
      }
     }
    }
   }
  }
 }
 JOINT RightHip
 {
  OFFSET -7.771700 -0.012900 -0.001300
  CHANNELS 3 Yrotation Xrotation Zrotation
  JOINT RightKnee
  {
   OFFSET 0.000000 -40.869800 0.001200
   CHANNELS 3 Yrotation Xrotation Zrotation
   JOINT RightAnkle
   {
    OFFSET 0.000000 -39.717900 0.002100
    CHANNELS 3 Yrotation Xrotation Zrotation
    JOINT RightToe
    {
     OFFSET 0.000000 -4.965400 11.033500
     CHANNELS 3 Yrotation Xrotation Zrotation
     End Site
     {
      OFFSET 0.000000 -1.423100 5.872300
     }
    }
   }
  }
 }
 JOINT LeftHip
 {
  OFFSET 7.771700 -0.012900 -0.001300
  CHANNELS 3 Yrotation Xrotation Zrotation
  JOINT LeftKnee
  {
   OFFSET 0.000000 -40.869800 0.001200
   CHANNELS 3 Yrotation Xrotation Zrotation
   JOINT LeftAnkle
   {
    OFFSET 0.000000 -39.717900 0.002100
    CHANNELS 3 Yrotation Xrotation Zrotation
    JOINT LeftToe
    {
     OFFSET 0.000000 -4.965400 11.033500
     CHANNELS 3 Yrotation Xrotation Zrotation
     End Site
     {
      OFFSET 0.000000 -1.423100 5.872300
     }
    }
   }
  }
 }
}
MOTION
Frames: 14
Frame Time: 0.008333
0.000000 85.388000 0.000000 0.000000 -5.767877 0.000000 0.000000 11.653817 0.000000 0.000000 -5.885947 0.000000 0.000000 -0.000000 0.000000 0.000000 -0.000000 0.000000 0.000000 12.528835 0.000000 0.000000 0.711642 0.000000 0.000000 -0.000000 0.000000 0.000000 0.000000 -90.000000 0.000000 -2.309062 0.000000 0.000000 2.309062 0.000000 0.000000 -0.000000 0.000000 0.000000 -0.000000 90.000000 0.000000 -2.309062 0.000000 0.000000 2.309062 0.000000 0.000000 8.520406 0.000000 0.000000 1.905762 0.000000 -0.000000 -4.658285 0.000000 0.000000 -0.000000 0.000000 0.000000 8.520406 0.000000 0.000000 1.905762 0.000000 -0.000000 -4.658285 0.000000 0.000000 -0.000000 0.000000
-215.186971 57.785610 -71.713952 158.937123 -5.412292 0.481834 3.216007 3.764132 0.864701 0.064489 0.112423 0.010540 0.146354 0.193371 0.006600 2.817619 3.680687 0.201076 2.049238 16.755705 -0.559240 4.021941 -4.633997 -1.760349 0.034796 6.369035 -0.793476 -2.805757 -7.526093 -8.787851 -28.161869 -86.176294 61.224495 -0.709361 9.463911 -29.915729 -0.068336 5.650677 1.592140 10.507423 -2.227830 2.639740 99.219683 -86.523188 -134.476043 -5.442629 11.235387 8.280208 -15.319186 -66.308449 9.277450 -34.553803 72.358321 -35.341173 -3.910296 -7.297665 -1.436916 -0.208210 0.644133 -0.221578 2.505933 -68.687912 15.222704 41.089445 65.930924 34.121914 -17.966953 -9.483739 3.992324 -0.113088 -0.830283 -0.061366
-215.182028 57.785979 -71.705599 158.902038 -5.407167 0.512186 3.225487 3.765933 0.844902 0.082352 0.109032 0.003779 0.146525 0.193648 0.006665 2.805212 3.696197 0.213928 2.064941 16.749317 -0.569351 4.054201 -4.612684 -1.761493 0.040748 6.374354 -0.793895 -2.767434 -7.512493 -8.786879 -27.887080 -86.157102 60.979563 -0.695487 9.474449 -29.893873 -0.063098 5.652360 1.591644 10.529239 -2.226800 2.650537 98.935604 -86.561060 -134.139308 -5.435935 11.252322 8.293699 -15.517593 -66.311843 9.408137 -34.350000 72.391304 -35.163601 -3.857346 -7.290271 -1.484787 -0.231914 0.633190 -0.229316 2.580420 -68.687316 15.176111 41.088705 65.923524 34.118761 -17.968242 -9.465973 3.985022 -0.100035 -0.841280 -0.062160
-215.171285 57.786379 -71.695727 158.881710 -5.408584 0.516874 3.224809 3.770564 0.851490 0.082579 0.109645 0.003898 0.146607 0.194849 0.006792 2.783317 3.722978 0.229760 2.098858 16.741108 -0.585784 4.082636 -4.597469 -1.770569 0.073147 6.363206 -0.805125 -2.703638 -7.463520 -8.787732 -27.746525 -86.171094 60.830028 -0.689569 9.488589 -29.867875 -0.030057 5.636880 1.575426 10.548158 -2.220963 2.665146 98.550134 -86.602841 -133.699306 -5.433231 11.272647 8.296966 -15.620550 -66.306986 9.478811 -34.284783 72.401635 -35.071243 -3.838517 -7.286664 -1.553753 -0.220915 0.625250 -0.203202 2.574870 -68.679235 15.199575 41.085336 65.906712 34.118140 -17.975665 -9.455406 3.968006 -0.114261 -0.840781 -0.064155
-215.160069 57.786865 -71.687154 158.851618 -5.418179 0.530231 3.230000 3.784485 0.852757 0.057392 0.111435 0.010420 0.147750 0.196771 0.006891 2.814946 3.726506 0.216124 2.112416 16.754072 -0.579230 4.095549 -4.599627 -1.782264 0.060771 6.391636 -0.782457 -2.641292 -7.466911 -8.812969 -27.498833 -86.150482 60.605181 -0.685958 9.498965 -29.847671 -0.017234 5.632639 1.573097 10.611358 -2.139300 2.759509 98.999402 -86.565600 -134.135301 -5.438569 11.296541 8.287749 -15.681347 -66.295533 9.515630 -34.215701 72.413042 -34.973861 -3.818583 -7.289416 -1.598569 -0.201662 0.623454 -0.197828 2.593171 -68.664918 15.207803 41.084840 65.902575 34.114142 -17.962878 -9.442250 3.963941 -0.153778 -0.850453 -0.075257
-215.146740 57.787399 -71.679350 158.796857 -5.434234 0.539468 3.234284 3.804663 0.858926 0.089449 0.110754 0.002492 0.142296 0.198082 0.008217 2.832749 3.726265 0.211256 2.108844 16.795724 -0.562329 4.114695 -4.622498 -1.801145 0.050165 6.407933 -0.772361 -2.608075 -7.468360 -8.822483 -27.125687 -86.114754 60.276812 -0.683213 9.505977 -29.826981 -0.012383 5.652831 1.591463 10.667832 -2.090600 2.803663 99.123511 -86.565521 -134.236874 -5.455141 11.324039 8.267430 -15.718497 -66.275846 9.556261 -34.140653 72.424175 -34.868549 -3.796594 -7.290796 -1.636872 -0.189653 0.622172 -0.197461 2.630484 -68.642522 15.220455 41.085266 65.897229 34.115264 -17.920493 -9.436259 3.971295 -0.156088 -0.852871 -0.088531
-215.135186 57.787844 -71.672304 158.760332 -5.447190 0.558822 3.251725 3.820621 0.846746 0.101644 0.110170 -0.000157 0.126154 0.199469 0.013173 2.837144 3.735112 0.210618 2.118999 16.810056 -0.560087 4.134783 -4.601994 -1.802663 0.055188 6.416411 -0.770024 -2.581311 -7.469281 -8.828667 -26.755197 -86.083238 59.954751 -0.678157 9.512731 -29.805976 0.008235 5.702680 1.619306 10.722378 -2.080727 2.810305 99.105936 -86.584855 -134.195041 -5.478247 11.355821 8.237382 -15.739802 -66.263262 9.563953 -34.054291 72.438317 -34.763433 -3.766507 -7.290053 -1.654492 -0.198402 0.626440 -0.176077 2.675668 -68.623094 15.205925 41.090142 65.892569 34.115315 -17.888917 -9.425766 3.972850 -0.170152 -0.862918 -0.098507
-215.127180 57.788323 -71.667830 158.730626 -5.462485 0.600682 3.272528 3.838835 0.809501 0.083829 0.111663 0.003855 0.131658 0.197994 0.015454 2.838318 3.746158 0.208522 2.130159 16.818488 -0.559241 4.150658 -4.505251 -1.781512 0.063382 6.420001 -0.770057 -2.536543 -7.408348 -8.836343 -26.800803 -86.097801 60.017681 -0.672535 9.516435 -29.790652 0.032217 5.724375 1.629236 10.776955 -2.039366 2.835828 99.137015 -86.606516 -134.205527 -5.501959 11.393303 8.197787 -15.706311 -66.256374 9.511871 -33.957395 72.456307 -34.675295 -3.713246 -7.290790 -1.632454 -0.243685 0.631434 -0.198201 2.769171 -68.599023 15.137251 41.087765 65.891939 34.101610 -17.883948 -9.403890 3.973502 -0.167578 -0.882959 -0.100329
-215.113570 57.788672 -71.661794 158.701535 -5.476654 0.604127 3.281543 3.851664 0.817487 0.069960 0.111077 0.010107 0.150278 0.200020 0.006929 2.840962 3.753046 0.210284 2.135461 16.839466 -0.558096 4.151645 -4.466154 -1.776872 0.065306 6.432611 -0.773475 -2.512640 -7.389707 -8.847186 -26.664377 -86.076727 59.922212 -0.666910 9.511555 -29.784304 0.048335 5.734927 1.628168 10.838603 -1.979636 2.866154 99.150389 -86.629214 -134.203538 -5.528145 11.434743 8.149976 -15.730799 -66.240946 9.528989 -33.934819 72.465728 -34.610487 -3.709593 -7.289755 -1.650349 -0.218322 0.624258 -0.215494 2.762400 -68.573296 15.173289 41.076926 65.885320 34.084496 -17.874779 -9.405511 3.967130 -0.167040 -0.876250 -0.100382
-215.095329 57.788837 -71.654078 158.670409 -5.487124 0.573819 3.300508 3.859760 0.857462 0.070424 0.109800 0.008563 0.156936 0.201877 0.004323 2.837291 3.765447 0.221211 2.136685 16.862145 -0.560679 4.147490 -4.432888 -1.773294 0.063474 6.444356 -0.782416 -2.496159 -7.376381 -8.858684 -26.599821 -86.054776 59.908880 -0.652424 9.483832 -29.815021 0.064434 5.739284 1.621913 10.906645 -1.917342 2.890206 99.089587 -86.654231 -134.134203 -5.560025 11.479063 8.092728 -15.786381 -66.220252 9.597202 -33.973072 72.465253 -34.544982 -3.782584 -7.291055 -1.762615 -0.101345 0.609254 -0.185139 2.665108 -68.554664 15.305845 41.065536 65.884568 34.064842 -17.843561 -9.417316 3.970176 -0.239882 -0.862698 -0.118899
-215.088499 57.789102 -71.652219 158.649755 -5.501584 0.614129 3.291754 3.870110 0.827382 0.085674 0.113690 0.003751 0.160689 0.203961 0.002016 2.843311 3.771387 0.222728 2.132802 16.884974 -0.556580 4.135026 -4.392873 -1.762098 0.055567 6.458698 -0.783581 -2.492342 -7.356182 -8.864783 -26.614573 -86.035111 59.984586 -0.634121 9.458779 -29.847245 0.101080 5.807863 1.649221 10.953792 -1.903644 2.878297 98.987719 -86.680280 -134.026549 -5.596699 11.528793 8.026314 -15.740026 -66.214076 9.526878 -33.895112 72.484352 -34.459075 -3.745568 -7.303006 -1.776643 -0.123349 0.620814 -0.174856 2.709094 -68.525394 15.269916 41.081827 65.879611 34.064866 -17.869473 -9.399702 3.963440 -0.280398 -0.864309 -0.125687
-215.080291 57.789276 -71.650773 158.631118 -5.517773 0.643083 3.296904 3.884072 0.802523 0.086340 0.114237 0.003668 0.156066 0.204045 0.006639 2.858292 3.776958 0.217280 2.127611 16.910554 -0.552607 4.129653 -4.385953 -1.758845 0.048165 6.475047 -0.784389 -2.495215 -7.332389 -8.867345 -26.800067 -86.043979 60.203829 -0.644470 9.464597 -29.837062 0.110282 5.824545 1.656202 11.025429 -1.833140 2.892425 99.661059 -86.673182 -134.736154 -5.618931 11.643501 7.992626 -15.709293 -66.205279 9.475674 -33.829101 72.504418 -34.381845 -3.725831 -7.306457 -1.764866 -0.152380 0.622348 -0.188410 2.782669 -68.506860 15.208847 41.080417 65.878004 34.073701 -17.879750 -9.364440 3.953771 -0.264121 -0.894279 -0.127245
-215.070653 57.789185 -71.647546 158.608039 -5.524020 0.656637 3.312940 3.888997 0.791499 0.086686 0.114523 0.003624 0.159506 0.205523 0.006459 2.867677 3.781562 0.215346 2.113604 16.932695 -0.548081 4.100628 -4.323638 -1.736254 0.034965 6.488330 -0.783258 -2.498871 -7.317919 -8.867092 -26.681708 -85.991403 60.157261 -0.679101 9.404572 -29.888318 0.114089 5.839000 1.664432 11.097810 -1.758649 2.904048 99.085374 -86.715302 -134.137862 -5.666317 11.671693 7.899401 -15.697627 -66.203211 9.453268 -33.786048 72.522481 -34.302947 -3.722362 -7.308387 -1.783131 -0.146967 0.620064 -0.185630 2.799132 -68.495154 15.207493 41.092457 65.873920 34.078641 -17.852000 -9.344628 3.958801 -0.271374 -0.908473 -0.139383
-215.056737 57.789320 -71.646681 158.579780 -5.550459 0.648408 3.335041 3.912388 0.803906 0.087032 0.114810 0.003580 0.154590 0.204061 0.006596 2.882366 3.788093 0.211555 2.103482 16.955169 -0.542757 4.065371 -4.257393 -1.713963 0.027736 6.502229 -0.781257 -2.499345 -7.323728 -8.864954 -26.446663 -85.916739 59.987462 -0.694839 9.329936 -29.973774 0.133091 5.879677 1.678751 11.164039 -1.704136 2.902177 98.416683 -86.755407 -133.447912 -5.718918 11.702928 7.802816 -15.713773 -66.177406 9.466783 -33.792278 72.544358 -34.247703 -3.743346 -7.312636 -1.837815 -0.102654 0.608102 -0.163502 2.772764 -68.463636 15.262344 41.100435 65.870635 34.087340 -17.828642 -9.339155 3.960579 -0.305856 -0.904479 -0.154326
